HIERARCHY
ROOT Hips
{
	OFFSET -0.001795 -0.223333 0.028219
	CHANNELS 6 Xposition Yposition Zposition Zrotation Yrotation Xrotation 
	JOINT LeftUpLeg
	{
		OFFSET 0.069520 -0.091406 -0.006815
		CHANNELS 3 Zrotation Yrotation Xrotation
		JOINT LeftLeg
		{
			OFFSET 0.034277 -0.375199 -0.004496
			CHANNELS 3 Zrotation Yrotation Xrotation
			JOINT LeftFoot
			{
				OFFSET -0.013596 -0.397961 -0.043693
				CHANNELS 3 Zrotation Yrotation Xrotation
				JOINT LeftToe
				{
					OFFSET 0.026358 -0.055791 0.119288
					CHANNELS 3 Zrotation Yrotation Xrotation
					End Site
					{
						OFFSET 0.000000 0.000000 0.000000
					}
				}
			}
		}
	}
	JOINT RightUpLeg
	{
		OFFSET -0.067670 -0.090522 -0.004320
		CHANNELS 3 Zrotation Yrotation Xrotation
		JOINT RightLeg
		{
			OFFSET -0.038290 -0.382569 -0.008850
			CHANNELS 3 Zrotation Yrotation Xrotation
			JOINT RightFoot
			{
				OFFSET 0.015774 -0.398415 -0.042312
				CHANNELS 3 Zrotation Yrotation Xrotation
				JOINT RightToe
				{
					OFFSET -0.025372 -0.048144 0.123348
					CHANNELS 3 Zrotation Yrotation Xrotation
					End Site
					{
						OFFSET 0.000000 0.000000 0.000000
					}
				}
			}
		}
	}
	JOINT Spine
	{
		OFFSET -0.002533 0.108963 -0.026696
		CHANNELS 3 Zrotation Yrotation Xrotation
		JOINT Spine1
		{
			OFFSET 0.005487 0.135180 0.001092
			CHANNELS 3 Zrotation Yrotation Xrotation
			JOINT Spine2
			{
				OFFSET 0.001457 0.052922 0.025425
				CHANNELS 3 Zrotation Yrotation Xrotation
				JOINT Neck
				{
					OFFSET -0.002778 0.213870 -0.042857
					CHANNELS 3 Zrotation Yrotation Xrotation
					JOINT Head
					{
						OFFSET 0.005152 0.064970 0.051349
						CHANNELS 3 Zrotation Yrotation Xrotation
						End Site
						{
							OFFSET 0.000000 0.000000 0.000000
						}
					}
				}
				JOINT LeftShoulder
				{
					OFFSET 0.078845 0.121749 -0.034090
					CHANNELS 3 Zrotation Yrotation Xrotation
					JOINT LeftArm
					{
						OFFSET 0.090977 0.030469 -0.008868
						CHANNELS 3 Zrotation Yrotation Xrotation
						JOINT LeftForeArm
						{
							OFFSET 0.259612 -0.012772 -0.027456
							CHANNELS 3 Zrotation Yrotation Xrotation
							JOINT LeftHand
							{
								OFFSET 0.249234 0.008986 -0.001171
								CHANNELS 3 Zrotation Yrotation Xrotation
								End Site
								{
									OFFSET 0.000000 0.000000 0.000000
								}
							}
						}
					}
				}
				JOINT RightShoulder
				{
					OFFSET -0.081759 0.118833 -0.038615
					CHANNELS 3 Zrotation Yrotation Xrotation
					JOINT RightArm
					{
						OFFSET -0.096012 0.032551 -0.009143
						CHANNELS 3 Zrotation Yrotation Xrotation
						JOINT RightForeArm
						{
							OFFSET -0.253742 -0.013329 -0.021401
							CHANNELS 3 Zrotation Yrotation Xrotation
							JOINT RightHand
							{
								OFFSET -0.255298 0.007772 -0.005559
								CHANNELS 3 Zrotation Yrotation Xrotation
								End Site
								{
									OFFSET 0.000000 0.000000 0.000000
								}
							}
						}
					}
				}
			}
		}
	}
}
MOTION
Frames: 7
Frame Time: 0.050000
0.089667 0.542888 0.136339 -9.909736 -5.067929 84.424829 11.041472 -2.623788 -5.171632 -18.799788 14.367285 42.263123 1.023065 4.820781 13.571787 0.000000 0.000000 0.000000 -10.022210 3.199031 -10.041626 24.042923 -9.425595 48.322222 -6.617286 -15.962196 -10.795494 0.000000 0.000000 0.000000 9.790572 -4.084017 6.959916 0.359604 1.052264 -32.810077 -0.651190 10.742349 27.049857 17.200390 -0.228610 -51.844782 0.000000 0.000000 0.000000 34.964635 -5.081935 2.376488 -2.668789 -41.080196 -2.031035 93.148276 -18.814133 -11.556773 0.000000 0.000000 0.000000 -3.784424 -1.229866 0.396360 13.574214 44.949608 -0.085184 -124.631927 54.513355 -71.972833 0.000000 0.000000 0.000000 
0.087874 0.529855 0.142312 -9.997763 -6.229507 85.843763 10.467234 -2.531918 -5.892362 -16.926155 12.167755 38.338879 1.513253 5.681305 16.046707 0.000000 0.000000 0.000000 -10.074186 3.256164 -9.099679 19.707220 -5.931919 42.389758 -6.383677 -13.885726 -10.886526 0.000000 0.000000 0.000000 8.633991 -3.846815 8.722508 -0.355963 1.182758 -33.411331 -0.256159 11.831999 26.874954 17.762655 0.303759 -53.942963 0.000000 0.000000 0.000000 33.616833 -6.215321 2.683638 -6.500045 -41.128487 -1.066990 99.773534 -22.645320 -16.718966 0.000000 0.000000 0.000000 -4.904861 -2.338983 0.106142 15.166003 44.467540 0.581070 -130.584131 48.968716 -69.626066 0.000000 0.000000 0.000000 
0.085591 0.516205 0.147611 -9.506410 -6.495828 86.209723 10.916739 -2.513418 -7.795228 -14.819903 11.934079 40.979360 -0.610160 3.627788 21.784038 0.000000 0.000000 0.000000 -8.747372 2.838620 -6.809662 15.919041 -3.910640 40.187264 -5.880203 -11.886415 -8.333329 0.000000 0.000000 0.000000 8.101640 -3.700130 9.558283 -0.463254 1.182866 -33.232590 -1.685938 13.157769 26.363586 20.248565 0.260676 -54.929340 0.000000 0.000000 0.000000 31.420340 -5.234898 2.741764 -9.148096 -45.076744 -0.408631 104.192947 -28.965098 -25.425082 0.000000 0.000000 0.000000 -4.257259 -4.239741 -0.678901 15.410831 45.590649 1.064509 -133.222874 44.271282 -64.309751 0.000000 0.000000 0.000000 
0.083863 0.506430 0.150504 -8.995189 -6.399751 86.078858 12.276222 -2.800802 -7.514515 -15.021029 13.542988 44.431405 -3.046039 1.080401 24.391760 0.000000 0.000000 0.000000 -7.991265 2.567938 -4.327486 13.472462 -3.096111 41.278139 -5.074100 -9.748302 -5.825177 0.000000 0.000000 0.000000 7.925124 -3.750031 10.109199 -1.770490 1.257861 -33.416758 -1.284730 13.613386 26.407179 20.190146 0.380860 -54.830108 0.000000 0.000000 0.000000 29.668345 -5.554999 2.917486 -13.547483 -47.164716 1.139943 108.190628 -33.392053 -32.396327 0.000000 0.000000 0.000000 -4.129446 -5.048378 -0.976988 17.123175 45.995200 1.833237 -130.860250 39.709405 -53.189117 0.000000 0.000000 0.000000 
0.082621 0.499496 0.152135 -8.363825 -6.886532 87.342555 12.008502 -2.797861 -6.931928 -14.167519 14.415600 47.841859 -4.416751 -0.372472 24.932436 0.000000 0.000000 0.000000 -7.865735 2.535410 -4.768922 11.785083 -2.501733 43.994999 -4.398209 -10.264383 2.745366 0.000000 0.000000 0.000000 6.804246 -3.179145 9.159243 -2.649212 1.289625 -32.723899 -0.854210 13.888734 25.791134 18.680955 1.014311 -56.892964 0.000000 0.000000 0.000000 29.137516 -5.444146 3.036396 -16.465076 -48.987954 2.400956 110.274227 -34.146782 -34.680024 0.000000 0.000000 0.000000 -5.719247 -5.280409 -0.978877 19.715504 45.828771 3.071699 -127.932076 35.427571 -43.039995 0.000000 0.000000 0.000000 
0.081816 0.496929 0.152476 -7.194945 -6.458604 88.110999 11.328366 -2.777088 -7.239708 -11.939184 14.226396 52.863041 -4.627876 -0.662034 23.704901 0.000000 0.000000 0.000000 -8.023069 2.594774 -5.399669 12.336127 -3.331497 48.113966 -3.485361 -9.177493 5.713683 0.000000 0.000000 0.000000 7.177316 -3.293894 8.388577 -3.123580 1.350727 -33.273379 -0.788769 13.122962 26.520497 16.095289 1.112556 -55.870653 0.000000 0.000000 0.000000 29.137911 -6.273396 3.096108 -19.338213 -48.838116 3.607801 111.072022 -33.719190 -34.468138 0.000000 0.000000 0.000000 -8.271975 -5.002373 -0.649434 22.918659 45.317790 4.232863 -127.173401 32.637509 -38.038601 0.000000 0.000000 0.000000 
0.081231 0.495912 0.152211 -7.216916 -6.599550 88.996207 9.649395 -2.512472 -7.062433 -10.126550 14.029725 56.874748 -5.744112 -1.244285 25.487781 0.000000 0.000000 0.000000 -7.585728 2.487820 -5.787484 11.621493 -3.075203 52.315383 -1.529370 -6.726406 10.296930 0.000000 0.000000 0.000000 6.518477 -2.998458 8.278466 -3.075810 1.385184 -33.706643 -0.407599 12.478004 25.904894 15.120245 1.006751 -54.708103 0.000000 0.000000 0.000000 31.268295 -6.070575 3.121526 -21.722313 -48.355308 4.722007 112.758945 -32.957264 -34.581535 0.000000 0.000000 0.000000 -10.472064 -4.038306 -0.145932 24.500560 45.958833 5.247544 -125.510366 31.458538 -35.259196 0.000000 0.000000 0.000000 
